<svg width="20" height="20" viewBox="0 0 20 20" fill="none" xmlns="http://www.w3.org/2000/svg">
<path d="M4.99762 10.9609C3.46615 11.6479 2.49658 12.6416 2.49658 13.7513C2.49658 15.823 5.85548 17.5028 9.99971 17.5028C14.1439 17.5028 17.5028 15.823 17.5028 13.7513C17.5028 12.6416 16.5333 11.6479 15.0018 10.9609" stroke="#A4A7AE" stroke-width="1.5" stroke-linecap="round" stroke-linejoin="round"/>
<path d="M13.0443 14.168C12.1409 14.7558 11.0766 15.0473 9.99968 15.0016C8.9228 15.0473 7.85851 14.7558 6.95508 14.168" stroke="#A4A7AE" stroke-width="1.5" stroke-linecap="round" stroke-linejoin="round"/>
<path d="M11.834 3.2575C12.5773 4.00068 12.7996 5.11839 12.3974 6.08943C11.9952 7.06047 11.0476 7.6936 9.99661 7.6936C8.94557 7.6936 7.99802 7.06047 7.59582 6.08943C7.19361 5.11839 7.41596 4.00068 8.15918 3.2575C8.64639 2.77 9.30737 2.49609 9.99661 2.49609C10.6858 2.49609 11.3468 2.77 11.834 3.2575" stroke="#A4A7AE" stroke-width="1.5" stroke-linecap="round" stroke-linejoin="round"/>
<path d="M9.99985 7.69336V12.502" stroke="#A4A7AE" stroke-width="1.5" stroke-linecap="round" stroke-linejoin="round"/>
</svg>
